<svg width="19" height="19" viewBox="0 0 19 19" fill="none" xmlns="http://www.w3.org/2000/svg">
<path d="M9.48827 11.8032C10.7668 11.8032 11.8032 10.7668 11.8032 9.48828C11.8032 8.20978 10.7668 7.17335 9.48827 7.17335C8.20977 7.17335 7.17334 8.20978 7.17334 9.48828C7.17334 10.7668 8.20977 11.8032 9.48827 11.8032Z" stroke="#C7C7C7" stroke-width="2" stroke-linecap="round" stroke-linejoin="round"/>
<path d="M15.1982 11.803C15.0955 12.0358 15.0649 12.2939 15.1103 12.5442C15.1557 12.7946 15.275 13.0255 15.4529 13.2074L15.4992 13.2537C15.6427 13.397 15.7565 13.5672 15.8342 13.7546C15.9118 13.9419 15.9518 14.1428 15.9518 14.3456C15.9518 14.5484 15.9118 14.7492 15.8342 14.9366C15.7565 15.1239 15.6427 15.2941 15.4992 15.4375C15.3559 15.5809 15.1857 15.6948 14.9983 15.7724C14.8109 15.8501 14.6101 15.8901 14.4073 15.8901C14.2045 15.8901 14.0037 15.8501 13.8163 15.7724C13.629 15.6948 13.4588 15.5809 13.3154 15.4375L13.2691 15.3912C13.0873 15.2133 12.8563 15.0939 12.606 15.0485C12.3557 15.0032 12.0975 15.0338 11.8647 15.1365C11.6365 15.2343 11.4419 15.3967 11.3048 15.6038C11.1677 15.8108 11.0941 16.0534 11.0931 16.3017V16.4329C11.0931 16.8422 10.9305 17.2347 10.6411 17.5241C10.3517 17.8136 9.95912 17.9762 9.54981 17.9762C9.14051 17.9762 8.74797 17.8136 8.45855 17.5241C8.16912 17.2347 8.00653 16.8422 8.00653 16.4329V16.3634C8.00055 16.108 7.91788 15.8603 7.76925 15.6525C7.62063 15.4447 7.41293 15.2864 7.17315 15.1982C6.94041 15.0955 6.68224 15.0649 6.43192 15.1103C6.1816 15.1557 5.95062 15.275 5.76876 15.4529L5.72246 15.4992C5.57913 15.6427 5.40892 15.7565 5.22157 15.8342C5.03422 15.9118 4.8334 15.9518 4.63058 15.9518C4.42777 15.9518 4.22695 15.9118 4.0396 15.8342C3.85225 15.7565 3.68204 15.6427 3.53871 15.4992C3.39522 15.3559 3.28139 15.1857 3.20372 14.9983C3.12606 14.8109 3.08608 14.6101 3.08608 14.4073C3.08608 14.2045 3.12606 14.0037 3.20372 13.8163C3.28139 13.629 3.39522 13.4588 3.53871 13.3154L3.58501 13.2691C3.7629 13.0873 3.88223 12.8563 3.92762 12.606C3.97301 12.3557 3.94237 12.0975 3.83965 11.8647C3.74183 11.6365 3.57942 11.4419 3.37239 11.3048C3.16537 11.1677 2.92277 11.0941 2.67447 11.0931H2.54329C2.13398 11.0931 1.74144 10.9305 1.45202 10.6411C1.1626 10.3517 1 9.95912 1 9.54981C1 9.14051 1.1626 8.74797 1.45202 8.45855C1.74144 8.16912 2.13398 8.00653 2.54329 8.00653H2.61274C2.86815 8.00055 3.11585 7.91788 3.32365 7.76925C3.53145 7.62063 3.68973 7.41293 3.77792 7.17315C3.88064 6.94041 3.91128 6.68224 3.86589 6.43192C3.8205 6.1816 3.70117 5.95062 3.52328 5.76876L3.47698 5.72246C3.33349 5.57913 3.21966 5.40892 3.14199 5.22157C3.06433 5.03422 3.02435 4.8334 3.02435 4.63058C3.02435 4.42777 3.06433 4.22695 3.14199 4.0396C3.21966 3.85225 3.33349 3.68204 3.47698 3.53871C3.62031 3.39522 3.79051 3.28139 3.97787 3.20372C4.16522 3.12606 4.36604 3.08608 4.56885 3.08608C4.77166 3.08608 4.97249 3.12606 5.15984 3.20372C5.34719 3.28139 5.5174 3.39522 5.66073 3.53871L5.70703 3.58501C5.88889 3.7629 6.11987 3.88223 6.37019 3.92762C6.6205 3.97301 6.87868 3.94237 7.11142 3.83965H7.17315C7.40138 3.74183 7.59603 3.57942 7.73313 3.37239C7.87023 3.16537 7.9438 2.92277 7.94479 2.67447V2.54329C7.94479 2.13398 8.10739 1.74144 8.39681 1.45202C8.68624 1.1626 9.07878 1 9.48808 1C9.89739 1 10.2899 1.1626 10.5794 1.45202C10.8688 1.74144 11.0314 2.13398 11.0314 2.54329V2.61274C11.0324 2.86104 11.1059 3.10364 11.243 3.31066C11.3801 3.51769 11.5748 3.6801 11.803 3.77792C12.0358 3.88064 12.2939 3.91128 12.5442 3.86589C12.7946 3.8205 13.0255 3.70117 13.2074 3.52328L13.2537 3.47698C13.397 3.33349 13.5672 3.21966 13.7546 3.14199C13.9419 3.06433 14.1428 3.02435 14.3456 3.02435C14.5484 3.02435 14.7492 3.06433 14.9366 3.14199C15.1239 3.21966 15.2941 3.33349 15.4375 3.47698C15.5809 3.62031 15.6948 3.79051 15.7724 3.97787C15.8501 4.16522 15.8901 4.36604 15.8901 4.56885C15.8901 4.77166 15.8501 4.97249 15.7724 5.15984C15.6948 5.34719 15.5809 5.5174 15.4375 5.66073L15.3912 5.70703C15.2133 5.88889 15.0939 6.11987 15.0485 6.37019C15.0032 6.6205 15.0338 6.87868 15.1365 7.11142V7.17315C15.2343 7.40138 15.3967 7.59603 15.6038 7.73313C15.8108 7.87023 16.0534 7.9438 16.3017 7.94479H16.4329C16.8422 7.94479 17.2347 8.10739 17.5241 8.39681C17.8136 8.68624 17.9762 9.07878 17.9762 9.48808C17.9762 9.89739 17.8136 10.2899 17.5241 10.5794C17.2347 10.8688 16.8422 11.0314 16.4329 11.0314H16.3634C16.1151 11.0324 15.8725 11.1059 15.6655 11.243C15.4585 11.3801 15.2961 11.5748 15.1982 11.803V11.803Z" stroke="#C7C7C7" stroke-width="2" stroke-linecap="round" stroke-linejoin="round"/>
</svg>
